# xmcd
#
# Track frame offsets:
#	150
#	22640
#	47833
#	59675
#	84322
#	115566
#	142334
#
# Disc length: 2407 seconds
#
# Revision: 1
# Processed by: cddbd v1.5.1PL0 Copyright (c) Steve Scherf et al.
# Submitted via: CDex 1.50Beta5
#
DISCID=56096507
DTITLE=くろやかつとし - Virtuoso Piano Transcriptions
DYEAR=1900
DGENRE=Classical
TTITLE0=The Moment of the Determination
TTITLE1=The First Time of ...
TTITLE2=Impromptu, Op.6
TTITLE3=Variation on Themes from 'TSUKIHIME'
TTITLE4=Piano Sonata No.2 'Reminiscences of AIR' 第一楽章 'Grazioso-Vivace'
TTITLE5=Piano Sonata No.2 'Reminiscences of AIR' 第二楽章 'Andante molto cantabile ed espresivo'
TTITLE6=Piano Sonata No.2 'Reminiscences of AIR' 第三楽章 'Finale'
EXTD=
EXTT0=
EXTT1=
EXTT2=
EXTT3=
EXTT4=
EXTT5=
EXTT6=
PLAYORDER=
